# xmcd
#
# Track frame offsets:
#	150
#	16784
#	36339
#
# Disc length: 720 seconds
#
# Revision: 0
# Processed by: cddbd v1.5.1PL0 Copyright (c) Steve Scherf et al.
# Submitted via: audiograbber 1.83.01
#
DISCID=1902ce03
DTITLE=Newland - Stand
DYEAR=2004
DGENRE=Funk
TTITLE0=Red
TTITLE1=Stand
TTITLE2=Tuff Kid
EXTD=www.matthewnewland.com
EXTT0=Pretty Good, Prince-like
EXTT1=Soppy Michael Jackson pastiche
EXTT2=
PLAYORDER=
